<?xml version="1.0" standalone="no"?>
<!DOCTYPE svg PUBLIC "-//W3C//DTD SVG 20010904//EN"
 "http://www.w3.org/TR/2001/REC-SVG-20010904/DTD/svg10.dtd">
<svg version="1.0" xmlns="http://www.w3.org/2000/svg"
 width="676.000000pt" height="676.000000pt" viewBox="0 0 676.000000 676.000000"
 preserveAspectRatio="xMidYMid meet">
<metadata>
Created by potrace 1.14, written by Peter Selinger 2001-2017
</metadata>
<g transform="translate(0.000000,676.000000) scale(0.100000,-0.100000)"
fill="#000000" stroke="none">
<path d="M3170 6744 c-728 -53 -1408 -324 -1955 -780 -144 -121 -391 -376
-502 -519 -285 -366 -492 -789 -604 -1229 -16 -65 -28 -121 -25 -124 3 -2 1
-13 -5 -24 -8 -15 -7 -24 7 -39 9 -10 22 -19 27 -19 6 0 2 6 -9 14 -18 14 -18
15 -1 22 11 4 23 1 30 -6 9 -10 9 -11 -3 -5 -13 8 -13 6 -1 -8 12 -15 31 -15
31 -1 0 3 -5 2 -12 -2 -6 -4 -8 -3 -4 4 7 12 66 -13 66 -29 0 -6 4 -8 9 -5 12
8 42 -4 36 -14 -3 -5 5 -6 17 -2 13 3 19 1 15 -5 -4 -6 -1 -11 6 -10 33 1 48
-4 41 -14 -4 -8 0 -9 15 -4 12 3 47 1 79 -6 31 -7 87 -12 125 -11 64 1 67 0
67 -22 0 -17 -7 -26 -25 -30 -27 -7 -169 1 -200 11 -22 7 -31 9 -58 11 -11 1
-15 7 -11 13 4 7 0 9 -14 5 -24 -8 -155 49 -208 89 -18 14 -34 25 -37 25 -3 0
-9 -34 -38 -230 -83 -559 12 -1216 258 -1780 49 -112 173 -354 178 -348 1 2
-8 77 -22 168 -20 140 -23 192 -20 345 4 156 8 192 31 274 50 179 139 327 268
446 52 48 404 288 542 368 17 11 40 27 51 37 11 9 31 23 44 30 19 10 21 14 10
22 -11 8 -10 8 5 4 18 -6 78 45 119 104 10 14 16 18 13 9 -23 -78 -11 -622 15
-697 7 -20 41 -56 92 -98 45 -36 99 -82 121 -101 l38 -35 -74 -77 c-41 -42
-89 -93 -107 -115 l-33 -39 40 -41 c107 -112 268 -335 394 -546 180 -300 331
-625 452 -975 102 -293 105 -300 164 -361 l53 -54 44 30 c25 17 49 38 54 48 4
9 11 87 15 172 4 85 13 234 21 330 8 96 15 181 15 188 0 7 25 -13 56 -45 l56
-57 -16 -136 c-19 -163 -31 -307 -23 -300 2 3 17 97 32 210 15 113 29 206 30
208 1 1 39 -23 85 -54 99 -66 213 -124 301 -155 54 -18 87 -22 209 -22 236 -1
347 40 490 183 120 120 175 247 187 431 l6 96 89 63 c143 101 219 200 253 331
20 76 19 162 -7 322 -18 120 -24 141 -44 154 -32 20 -66 13 -83 -19 -13 -23
-13 -48 -2 -195 9 -122 9 -181 1 -216 -35 -160 -169 -286 -342 -321 -67 -14
-70 -17 -91 -99 l-15 -57 52 0 53 0 -9 -62 c-14 -103 -35 -160 -86 -234 -127
-180 -345 -270 -571 -235 -116 18 -272 106 -397 223 l-51 49 9 47 c5 26 23
111 39 189 27 123 29 147 19 178 -7 20 -13 69 -13 110 -2 52 -4 67 -10 52 -5
-12 -6 -65 -3 -117 5 -81 1 -120 -27 -262 -18 -93 -35 -168 -39 -168 -13 0
-69 86 -87 135 -31 82 -35 136 -17 218 21 95 76 189 141 239 28 22 58 50 68
63 9 13 51 37 92 54 53 22 89 46 130 86 31 31 60 53 65 50 4 -3 6 3 4 13 -4
14 5 19 53 29 32 6 92 19 133 28 54 12 112 16 208 13 l133 -3 6 25 c3 14 12
35 19 48 19 29 82 30 183 2 40 -12 79 -19 85 -16 7 3 6 5 -3 5 -23 2 -195 73
-214 90 -22 19 -24 9 42 265 28 110 51 202 51 205 -2 18 -30 -67 -54 -159 -15
-58 -41 -149 -58 -203 -25 -83 -28 -100 -16 -114 12 -14 7 -15 -52 -9 -268 28
-499 -28 -645 -156 -25 -22 -47 -39 -49 -37 -2 2 0 36 5 74 4 39 8 120 8 181
l1 110 -65 79 c-36 43 -65 79 -65 81 0 2 18 20 40 41 l39 38 -19 104 c-11 58
-36 165 -55 238 -19 73 -35 136 -35 140 0 4 39 -31 88 -78 48 -46 120 -114
160 -150 l72 -66 0 77 c0 60 -3 79 -15 84 -19 7 -19 30 0 46 12 10 19 7 40
-16 24 -26 25 -30 25 -175 l0 -149 155 0 155 0 0 153 c0 136 2 156 18 170 39
36 78 11 43 -27 -19 -20 -21 -34 -21 -129 0 -59 1 -107 3 -107 2 0 48 30 103
67 202 135 490 244 572 215 55 -19 114 37 126 120 6 40 -7 194 -16 204 -3 2
-31 -7 -64 -20 -81 -33 -168 -47 -224 -36 -37 7 -55 19 -106 72 -71 75 -180
235 -223 328 -35 74 -51 147 -51 227 0 49 2 54 18 47 38 -16 88 -15 124 4 l38
20 -6 -42 c-3 -22 -19 -80 -36 -129 -16 -48 -26 -92 -22 -98 8 -14 94 -52 101
-45 3 2 -10 11 -28 19 -60 25 -65 39 -35 102 32 68 48 173 36 235 -5 25 -9 48
-10 53 0 4 -3 7 -8 7 -4 0 -7 -14 -7 -32 0 -39 -30 -58 -92 -58 -62 0 -71 7
-110 84 -19 39 -45 81 -56 94 -16 17 -18 25 -9 34 16 16 107 15 156 -2 20 -6
40 -9 43 -6 11 11 -29 58 -62 72 -61 25 -145 12 -145 -23 0 -12 -3 -14 -10 -7
-6 6 -19 62 -28 125 l-17 114 136 -3 c162 -4 262 16 364 72 68 39 113 79 55
50 -17 -9 -33 -14 -36 -11 -6 6 57 30 73 28 11 -1 108 104 102 111 -2 1 9 15
24 30 15 15 27 33 26 40 0 7 -5 3 -11 -9 -6 -13 -15 -23 -19 -23 -4 0 -22 -12
-39 -26 -24 -21 -28 -29 -18 -36 10 -7 9 -8 -4 -4 -10 3 -37 -4 -61 -14 -59
-26 -175 -50 -243 -50 -121 0 -280 55 -362 126 -22 18 -42 30 -46 26 -4 -3 -4
1 -1 10 4 9 1 19 -6 24 -8 4 -10 3 -5 -4 4 -7 5 -12 2 -12 -3 0 -15 18 -26 40
-25 49 -32 51 -18 7 42 -135 229 -248 418 -250 47 -1 108 2 135 5 28 4 58 7
68 8 11 0 15 4 11 12 -4 7 -3 8 4 4 12 -7 44 8 78 37 17 15 21 15 21 2 0 -8
-2 -13 -5 -10 -3 2 -16 -4 -29 -15 -41 -32 -130 -60 -225 -70 -50 -5 -93 -12
-97 -16 -3 -4 19 -4 49 0 61 8 64 2 4 -14 l-39 -10 40 5 c22 2 71 13 110 24
70 20 102 21 49 1 -16 -6 -40 -15 -54 -20 -69 -28 -283 -33 -399 -10 -85 17
-161 42 -155 52 3 4 -1 8 -8 8 -16 1 -68 46 -68 60 0 5 -4 10 -9 10 -5 0 -15
16 -21 36 -11 34 -10 82 4 144 4 16 -1 10 -14 -15 -33 -65 -22 -147 34 -243 8
-14 15 -19 18 -12 3 9 7 8 16 -2 9 -12 8 -14 -6 -13 -28 2 -58 27 -82 68 -17
29 -23 56 -25 120 -1 45 1 73 5 62 5 -16 10 -10 25 30 10 28 27 59 37 71 19
21 19 21 -39 33 -42 9 -66 10 -86 2 -35 -13 -37 -14 -37 -1 0 6 3 9 8 8 4 -1
25 4 47 10 49 15 88 15 80 2 -7 -11 -3 -12 44 -14 28 -1 28 0 12 15 -10 9 -28
20 -40 24 -12 4 -20 9 -18 11 3 3 21 -2 42 -10 32 -14 38 -14 52 -1 8 8 25 15
38 15 17 0 23 5 22 18 -1 14 -7 17 -29 14 -18 -3 -36 2 -47 12 -16 15 -19 15
-31 1 -11 -13 -8 -16 19 -21 17 -4 31 -10 31 -14 0 -12 -45 -6 -53 8 -4 6 -18
12 -29 12 -12 0 -18 -3 -15 -7 8 -7 -23 -32 -40 -33 -7 0 -13 7 -13 16 0 8 5
12 11 8 20 -12 29 19 11 37 -17 15 -28 18 -84 20 -33 1 -96 -31 -127 -65 -25
-27 -41 -33 -41 -16 0 6 6 9 13 8 6 -2 11 5 11 14 -1 10 10 22 27 28 16 7 26
16 23 21 -3 5 3 6 12 2 11 -4 15 -2 11 4 -6 10 15 26 38 28 6 0 11 5 12 10 1
6 -7 9 -17 7 -29 -5 -24 5 10 23 18 9 28 21 24 27 -4 7 -3 8 4 4 7 -4 12 -3
12 3 0 18 -17 21 -36 5 -10 -9 -12 -12 -4 -8 9 4 12 3 7 -2 -5 -5 -13 -9 -18
-9 -5 0 -9 -4 -8 -9 0 -4 -20 -23 -45 -41 -25 -18 -44 -34 -41 -36 2 -3 -4
-10 -14 -16 -18 -11 -18 -10 -3 20 9 18 31 46 49 64 19 17 30 34 25 37 -8 5
-43 -22 -123 -94 -47 -42 -54 -47 -66 -43 -6 2 -15 -1 -19 -8 -4 -8 -3 -9 4
-5 7 4 12 5 12 2 0 -13 -62 -36 -98 -36 -27 0 -39 -4 -39 -14 0 -11 5 -12 17
-6 12 6 33 5 61 -4 24 -8 37 -15 29 -16 -8 -1 -28 -4 -43 -6 -45 -7 -124 24
-165 65 -20 20 -40 35 -45 33 -5 -1 -6 2 -3 7 4 5 2 12 -4 16 -6 4 -8 10 -5
15 3 5 1 11 -5 15 -17 10 -11 21 13 23 12 1 29 4 37 5 27 5 110 46 137 67 14
11 29 17 34 14 5 -3 8 0 7 8 -2 7 4 12 12 10 8 -2 12 0 8 3 -4 4 20 38 53 75
62 70 78 104 53 114 -8 3 -13 2 -10 -3 3 -4 -4 -17 -17 -27 -21 -19 -21 -19
-7 0 14 18 14 18 -6 6 -12 -7 -21 -20 -20 -28 0 -9 -9 -21 -22 -28 -13 -6 -24
-15 -25 -20 -1 -5 -5 -8 -9 -7 -5 2 -7 0 -7 -5 3 -18 -2 -32 -12 -32 -5 0 -7
6 -3 13 5 7 1 7 -12 -3 -29 -22 -30 -24 -10 -16 16 5 17 4 6 -9 -7 -8 -17 -12
-23 -8 -5 3 -7 1 -4 -4 4 -6 0 -17 -9 -24 -13 -10 -17 -10 -26 2 -8 11 -9 10
-4 -4 5 -14 -4 -22 -37 -37 -51 -22 -157 -44 -183 -37 -10 2 -1 6 21 7 39 2
39 3 10 10 -25 6 -26 8 -7 9 13 0 20 5 17 11 -4 6 -10 8 -15 5 -4 -3 -13 2
-20 10 -7 8 -9 15 -4 16 5 0 0 4 -11 9 -16 7 -17 9 -3 9 15 1 15 4 2 31 -16
31 -25 39 -21 18 2 -7 -1 -3 -7 9 -8 18 -15 21 -34 16 -21 -5 -24 -3 -19 11 5
11 1 16 -13 16 -24 0 -25 9 -3 25 15 11 15 13 -6 20 -16 5 -21 12 -18 27 5 16
3 17 -9 7 -8 -6 -17 -9 -21 -5 -3 3 -1 6 6 6 7 0 9 5 5 12 -5 8 2 9 25 5 29
-6 31 -5 21 13 -9 17 -14 18 -30 8 -15 -10 -22 -10 -31 -1 -9 9 -6 11 12 7 17
-4 20 -3 10 4 -9 7 0 11 34 16 30 5 51 3 60 -4 10 -9 19 -8 37 1 12 7 33 12
45 13 27 1 31 20 6 23 -54 6 -61 8 -58 14 3 3 24 3 47 -2 24 -4 52 -8 63 -8
18 0 19 1 2 8 -11 4 13 7 55 8 98 2 122 6 131 21 4 6 19 12 33 12 14 0 23 -4
20 -8 -3 -5 1 -9 9 -9 8 0 12 4 9 9 -3 4 4 8 16 8 13 0 19 -4 14 -12 -5 -8 2
-9 24 -5 17 4 34 2 37 -3 3 -6 1 -10 -4 -10 -6 0 -3 -9 6 -20 10 -11 21 -20
26 -20 5 0 1 8 -9 18 -16 16 -16 17 -1 20 10 2 34 -2 54 -9 32 -10 34 -13 17
-22 -10 -6 -21 -13 -24 -17 -3 -4 -20 -16 -38 -27 -28 -17 -30 -22 -17 -33 8
-7 13 -15 11 -19 -2 -3 11 -17 28 -30 l31 -25 -24 26 c-13 16 -20 32 -16 39 5
8 4 10 -3 5 -7 -4 -12 -3 -12 3 0 5 20 24 44 41 46 31 62 37 51 20 -3 -5 -2
-10 4 -10 5 0 13 5 16 10 4 6 11 7 17 4 6 -4 -4 -13 -22 -20 -18 -8 -36 -12
-40 -9 -5 3 -11 1 -15 -5 -3 -5 -1 -10 4 -10 6 0 11 -5 11 -11 0 -8 -5 -8 -15
1 -8 7 -15 11 -16 9 -7 -39 -6 -49 11 -64 11 -10 17 -21 15 -26 -3 -4 -1 -10
4 -13 15 -10 6 22 -12 42 -19 21 -24 43 -5 24 16 -16 31 -15 22 1 -4 7 -3 9 2
4 5 -5 10 -13 10 -18 1 -5 2 -13 3 -19 0 -5 5 -10 11 -10 5 0 9 6 7 13 -1 7 7
11 18 10 11 -1 23 3 26 9 4 6 18 12 31 13 12 1 34 5 47 9 16 6 21 5 17 -3 -7
-12 33 -32 47 -24 4 2 7 -1 7 -7 0 -6 4 -9 8 -6 5 3 9 -1 9 -7 0 -8 -10 -12
-27 -9 -20 3 -26 0 -26 -16 0 -12 5 -18 13 -15 7 3 10 10 6 16 -4 7 0 8 12 4
9 -4 24 -2 32 5 11 9 13 8 11 -3 -2 -9 4 -13 17 -11 17 2 18 1 5 -8 -12 -10
-11 -11 7 -7 13 3 24 -1 27 -10 9 -22 7 -30 -4 -13 -5 8 -12 12 -15 8 -3 -3 8
-20 26 -37 25 -25 29 -35 20 -44 -10 -9 -12 -9 -9 2 2 7 -3 16 -10 18 -8 3
-10 -1 -6 -11 3 -9 1 -16 -6 -16 -6 0 -9 -4 -5 -10 3 -5 12 -7 19 -4 8 3 17 1
21 -5 3 -6 2 -11 -4 -11 -6 0 -8 -6 -5 -14 3 -7 -2 -20 -10 -29 -14 -13 -14
-16 0 -21 9 -3 20 -4 24 -1 5 3 11 1 14 -4 4 -5 -15 -8 -43 -8 -27 1 -47 -1
-45 -5 7 -11 -61 -29 -82 -22 -10 4 -30 16 -44 28 -14 11 -4 -1 22 -27 l47
-47 51 20 c60 24 72 25 46 5 -22 -17 -20 -18 51 -19 29 -1 53 4 53 9 0 6 5 3
10 -5 5 -8 10 -10 10 -5 0 6 19 16 43 22 39 11 44 16 54 55 19 71 108 160 207
208 78 37 176 62 176 43 0 -5 -8 -20 -17 -33 l-17 -25 24 20 c25 22 25 20 -9
-46 -29 -57 -23 -91 18 -109 17 -6 35 -9 40 -5 6 3 11 1 11 -4 0 -7 22 -11 53
-11 137 0 241 -80 223 -172 -3 -18 -2 -27 4 -23 6 3 10 19 10 35 0 16 5 32 10
35 6 3 10 14 10 23 0 20 32 86 56 120 13 17 14 21 2 17 -22 -9 -82 -115 -72
-129 2 -3 1 -4 -3 -1 -4 3 -8 11 -9 18 -16 92 -17 100 -4 92 8 -5 11 -4 7 2
-10 16 23 48 73 71 51 23 28 30 -26 7 -20 -8 -40 -12 -45 -9 -5 3 -8 2 -7 -3
4 -14 -24 -56 -31 -45 -4 6 -11 5 -19 -4 -11 -12 -10 -14 3 -14 9 0 13 -4 10
-10 -3 -5 -1 -18 5 -29 7 -14 7 -22 -2 -27 -6 -4 -8 -3 -4 4 3 6 -3 17 -15 26
-19 13 -21 20 -14 63 5 26 8 51 7 56 -1 4 6 7 15 8 10 0 27 3 38 5 34 8 137 8
190 0 175 -27 450 -236 544 -414 24 -46 49 -107 57 -135 16 -62 18 -169 3
-184 -8 -8 -8 -13 0 -17 6 -4 11 -19 11 -34 0 -22 -2 -24 -11 -12 -8 11 -9 6
-5 -23 5 -42 -1 -70 -15 -61 -5 3 -6 -3 -2 -12 4 -11 2 -15 -4 -11 -6 4 -13
-6 -17 -23 -3 -18 -12 -30 -21 -30 -10 0 -13 5 -9 12 4 6 3 8 -2 5 -6 -3 -16
3 -23 15 -7 11 -8 17 -2 13 6 -3 11 -2 11 4 0 5 -9 13 -20 16 -11 3 -20 14
-20 23 0 9 -7 30 -15 45 -15 30 -6 67 16 67 6 0 9 6 6 13 -3 7 2 24 10 38 8
13 12 16 9 6 -4 -11 -2 -16 5 -11 6 3 9 21 7 39 -2 19 -1 32 3 29 9 -5 -2 165
-12 191 -5 13 -8 -6 -9 -55 -2 -92 -4 -104 -20 -157 -14 -46 -93 -143 -116
-143 -8 0 -14 -4 -14 -8 0 -15 -95 -54 -146 -59 -63 -7 -115 3 -93 18 10 7 7
8 -11 4 -19 -5 -33 0 -52 18 -20 19 -28 21 -32 11 -7 -18 54 -65 158 -120 47
-25 84 -50 81 -55 -4 -5 1 -6 9 -3 11 4 14 -1 12 -19 -3 -22 0 -24 18 -18 12
5 23 20 26 37 8 45 62 76 128 72 30 -2 56 -7 59 -12 4 -5 0 -6 -8 -1 -8 5 -6
-1 5 -13 10 -12 23 -19 29 -15 5 3 7 1 4 -4 -4 -6 1 -25 10 -44 19 -38 21
-131 3 -192 -16 -57 -67 -125 -115 -151 l-40 -23 -8 -94 c-11 -130 -1 -455 18
-568 20 -118 48 -183 94 -220 40 -32 106 -68 97 -53 -3 5 -19 15 -36 22 -55
23 -35 33 58 27 146 -8 531 -109 637 -165 158 -85 220 -305 219 -772 0 -261
-17 -431 -64 -670 -16 -80 -32 -154 -35 -165 -11 -34 50 42 129 160 319 475
520 1022 588 1600 16 140 16 527 -1 670 -81 703 -352 1326 -807 1856 -95 111
-333 339 -455 437 -473 378 -1071 627 -1701 707 -119 15 -496 27 -608 19z
m2230 -915 c0 -6 -4 -7 -10 -4 -5 3 -10 11 -10 16 0 6 5 7 10 4 6 -3 10 -11
10 -16z m34 5 c3 -8 2 -12 -4 -9 -6 3 -10 10 -10 16 0 14 7 11 14 -7z m-3809
-65 c51 -24 110 -85 133 -138 24 -55 22 -157 -4 -206 -12 -22 -27 -39 -34 -37
-6 1 -8 -2 -5 -8 9 -15 -19 -44 -74 -77 -40 -24 -56 -28 -127 -28 -72 0 -85 3
-125 29 -54 36 -83 68 -110 124 -27 54 -29 150 -6 206 18 41 103 130 117 121
5 -3 12 0 15 6 22 35 153 40 220 8z m3670 -90 c19 -9 19 -9 -1 -5 -12 2 -27 0
-34 -4 -7 -5 4 -9 28 -11 30 -3 38 -1 34 10 -4 10 1 12 19 6 13 -4 31 -11 39
-16 19 -10 20 -10 -115 -15 -149 -5 -165 -7 -154 -20 6 -8 5 -13 -4 -17 -22
-8 -18 32 5 44 16 9 19 8 12 -3 -4 -7 3 -4 16 7 13 11 20 14 16 8 -5 -8 -1
-13 9 -13 11 0 15 5 11 16 -3 8 -2 13 2 10 5 -3 22 -1 38 4 38 11 54 11 79 -1z
m-625 -28 c0 -5 35 -9 78 -9 106 0 114 -1 107 -12 -3 -6 1 -7 9 -4 9 3 16 1
16 -6 0 -6 4 -9 9 -6 11 7 42 -4 37 -13 -2 -3 7 -7 21 -8 14 0 29 -6 33 -13 4
-6 10 -11 14 -11 43 6 32 -21 -20 -48 -30 -16 -54 -39 -71 -68 -33 -58 -24
-65 15 -12 62 83 138 101 227 53 183 -97 311 -237 366 -399 19 -54 24 -90 23
-160 0 -101 -6 -154 -17 -172 -5 -7 -6 -17 -2 -22 3 -5 1 -12 -4 -15 -4 -3
-11 -18 -14 -33 -4 -16 -17 -41 -31 -58 -24 -29 -25 -29 -26 -7 0 12 5 22 10
22 6 0 10 7 10 15 0 8 10 33 21 55 12 23 19 43 16 46 -5 5 -47 -76 -47 -90 0
-4 -9 -15 -21 -27 -16 -16 -18 -23 -8 -35 9 -11 9 -18 2 -25 -8 -8 -11 -6 -10
7 1 11 -3 18 -9 17 -7 -1 -14 22 -18 60 -8 66 -41 208 -56 235 -5 9 -23 46
-40 82 -18 35 -38 73 -45 83 -11 16 -11 24 6 51 27 44 24 66 -3 26 -29 -42
-43 -40 -43 5 1 19 -3 35 -7 35 -4 0 -8 -4 -8 -10 0 -21 -27 -8 -71 33 -25 24
-62 53 -82 66 -21 13 -34 27 -31 33 4 6 2 8 -4 4 -9 -5 -149 57 -162 73 -3 3
-14 7 -25 8 -76 7 -185 30 -178 37 4 5 -7 7 -24 4 -39 -5 -40 1 -12 59 32 67
127 123 207 123 22 0 32 4 27 9 -14 13 -110 -6 -158 -31 -22 -11 -51 -31 -64
-44 -13 -13 -29 -21 -35 -18 -6 4 -8 2 -4 -4 8 -13 -14 -63 -25 -56 -5 3 -9
-4 -9 -15 0 -16 -7 -21 -27 -22 l-28 -1 30 -8 c28 -7 27 -8 -13 -9 -24 0 -41
3 -38 8 4 5 1 11 -6 13 -10 4 -10 13 0 46 7 23 17 42 23 42 6 0 8 4 5 8 -10
16 80 93 125 107 54 17 59 17 59 6z m746 -27 c1 -9 0 -13 -4 -10 -3 4 -7 14
-8 22 -1 9 0 13 4 10 3 -4 7 -14 8 -22z m-2897 0 c2 -2 -14 -4 -37 -4 -22 0
-44 5 -47 10 -6 10 73 3 84 -6z m2866 -38 c62 -37 156 -126 172 -163 21 -53
16 -131 -13 -193 l-26 -55 -11 30 c-6 16 -21 38 -34 48 -19 16 -22 22 -11 34
6 8 12 39 12 69 1 49 -2 57 -35 90 -38 37 -84 53 -163 54 -29 0 -37 -3 -33
-14 5 -13 -114 51 -137 74 -14 14 11 32 37 26 9 -2 15 0 12 4 -7 12 10 21 48
27 18 3 33 6 35 7 9 9 111 -17 147 -38z m85 9 c19 -19 32 -35 29 -35 -3 0 -20
16 -39 35 -19 19 -32 35 -29 35 3 0 20 -16 39 -35z m-3047 18 c-7 -2 -19 -2
-25 0 -7 3 -2 5 12 5 14 0 19 -2 13 -5z m314 -19 c-3 -3 -12 -4 -19 -1 -8 3
-5 6 6 6 11 1 17 -2 13 -5z m2698 -12 c-3 -3 -11 0 -18 7 -9 10 -8 11 6 5 10
-3 15 -9 12 -12z m-2865 -3 c-41 -5 -90 -9 -107 -10 -18 -1 -33 -6 -33 -11 0
-4 -14 -8 -31 -8 -21 0 -28 -4 -23 -12 4 -7 4 -10 0 -6 -5 4 -19 3 -32 -2 -35
-14 -29 -3 9 16 56 30 119 42 207 42 l85 -1 -75 -8z m2912 -32 c45 -38 123
-140 141 -185 19 -48 22 -65 7 -42 -7 11 -9 3 -4 -25 11 -76 7 -185 -7 -185
-5 0 -9 -5 -9 -11 0 -5 5 -7 11 -3 7 4 6 -3 -2 -17 -7 -13 -12 -27 -11 -31 2
-7 -25 -4 -34 4 -3 4 4 28 16 55 11 26 23 68 25 93 l4 45 -9 -43 c-5 -24 -19
-59 -31 -79 l-22 -35 -12 28 c-13 31 -8 61 19 112 9 17 16 39 17 49 1 13 3 11
9 -7 12 -37 11 -5 -1 69 -13 80 -43 133 -103 189 -48 44 -51 58 -4 19z m-3178
-35 c3 -5 -1 -9 -9 -9 -8 0 -12 4 -9 9 3 4 7 8 9 8 2 0 6 -4 9 -8z m186 -2 c0
-5 -7 -10 -16 -10 -8 0 -12 5 -9 10 3 6 10 10 16 10 5 0 9 -4 9 -10z m-43 -24
c0 -8 -6 -12 -14 -9 -7 3 -10 9 -7 14 8 14 21 11 21 -5z m-42 -6 c3 -5 1 -10
-4 -10 -6 0 -11 5 -11 10 0 6 2 10 4 10 3 0 8 -4 11 -10z m105 6 c0 -2 -11 -6
-25 -8 -13 -3 -22 -1 -19 3 5 9 44 13 44 5z m750 -11 c20 -11 21 -14 7 -15
-10 0 -25 7 -33 15 -19 19 -7 19 26 0z m57 9 c-3 -3 -12 -4 -19 -1 -8 3 -5 6
6 6 11 1 17 -2 13 -5z m2057 -14 c21 -5 47 -17 58 -27 24 -24 35 -88 19 -107
-13 -15 -45 -11 -35 5 3 5 -1 9 -9 9 -7 0 -25 12 -39 28 -15 15 -45 40 -67 56
-23 17 -41 33 -41 38 0 11 65 10 114 -2z m-4339 -80 c10 -11 16 -20 13 -20 -3
0 -13 9 -23 20 -10 11 -16 20 -13 20 3 0 13 -9 23 -20z m70 -79 c-6 -5 -25 10
-25 20 0 5 6 4 14 -3 8 -7 12 -15 11 -17z m3296 -4 c-5 -7 -11 -25 -13 -41 -2
-19 -11 -32 -26 -37 -13 -5 -21 -5 -18 0 8 12 -57 23 -89 15 -25 -6 -26 -5
-13 15 7 11 20 21 28 21 8 1 40 11 70 24 55 23 79 24 61 3z m1256 -89 c-3 -8
-6 -5 -6 6 -1 11 2 17 5 13 3 -3 4 -12 1 -19z m-4412 -67 c-6 -5 -25 10 -25
20 0 5 6 4 14 -3 8 -7 12 -15 11 -17z m4412 -13 c-3 -7 -5 -2 -5 12 0 14 2 19
5 13 2 -7 2 -19 0 -25z m-2067 2 c8 -5 11 -10 5 -10 -5 0 -17 5 -25 10 -8 5
-10 10 -5 10 6 0 17 -5 25 -10z m107 -6 c-3 -3 -12 -4 -19 -1 -8 3 -5 6 6 6
11 1 17 -2 13 -5z m-1084 -29 c114 -2 119 -3 158 -33 22 -16 59 -44 81 -61 50
-38 168 -76 263 -86 74 -7 175 -47 175 -68 0 -7 -4 -17 -10 -23 -6 -6 -6 -30
0 -69 5 -33 10 -86 10 -118 l0 -58 -74 6 -74 6 -26 -47 c-14 -25 -26 -50 -26
-55 0 -5 34 -9 76 -9 42 0 74 -3 72 -7 -3 -5 -15 -32 -28 -60 l-24 -53 -67 0
c-44 0 -69 4 -71 12 -8 22 -38 -84 -38 -130 0 -24 7 -71 15 -104 19 -70 14
-93 -25 -113 -33 -17 -116 -20 -155 -5 -17 7 -24 7 -20 0 3 -6 -3 -10 -14 -10
-11 0 -23 -5 -27 -12 -4 -7 -3 -8 4 -4 7 4 29 4 49 0 31 -6 34 -8 18 -15 -16
-6 -16 -8 -3 -8 10 -1 15 -8 14 -18 -2 -10 2 -21 8 -25 6 -5 0 -9 -14 -10 -14
-1 7 -4 45 -7 67 -6 70 -7 69 -31 -4 -56 -9 -90 -15 -90 -4 0 -10 -12 -14 -27
-3 -16 -14 -36 -22 -45 -9 -10 -12 -18 -7 -18 5 0 10 -26 10 -58 1 -31 0 -51
-3 -44 -3 6 -9 12 -14 12 -4 0 -6 -6 -3 -14 9 -24 -24 -82 -47 -83 -20 -2 -20
-1 -5 16 15 16 15 19 1 31 -13 11 -15 10 -10 -6 5 -16 4 -16 -5 1 -15 28 -47
48 -47 29 0 -7 4 -11 9 -8 14 9 9 -23 -6 -35 -8 -7 -12 -21 -9 -31 3 -12 0
-20 -6 -20 -7 0 -10 -4 -6 -9 3 -5 1 -13 -5 -16 -6 -4 -9 -1 -8 7 4 17 -37 12
-68 -9 -13 -8 -29 -13 -36 -10 -8 4 -6 6 5 6 9 1 17 6 17 12 0 6 -7 9 -15 5
-8 -3 -15 0 -15 7 0 17 -63 49 -82 42 -9 -4 -19 -1 -24 6 -4 7 -3 10 3 6 5 -3
10 0 10 7 0 7 -6 13 -13 13 -7 0 -11 -4 -8 -8 7 -13 -17 -22 -28 -11 -6 6 -16
8 -22 6 -18 -7 -15 49 3 63 19 15 45 17 36 3 -4 -6 -10 -8 -14 -6 -4 3 -8 -1
-8 -9 0 -10 4 -12 12 -5 7 6 19 9 26 7 8 -2 11 -2 6 0 -4 3 -5 9 -1 14 3 5 0
9 -7 9 -8 0 -7 5 2 18 13 15 12 16 -3 4 -12 -10 -18 -10 -24 -1 -4 7 -3 9 3 6
24 -15 30 47 8 69 -8 9 -15 11 -15 5 0 -5 -8 -12 -17 -14 -14 -4 -12 -5 5 -6
12 0 22 -5 22 -10 0 -5 -27 -2 -59 6 -65 17 -108 51 -135 108 -19 39 -12 90
10 81 8 -3 14 -1 14 4 0 6 -5 10 -12 10 -6 0 -8 3 -5 6 4 4 14 1 23 -7 15 -12
16 -11 10 9 -5 13 -3 22 3 22 10 0 15 -14 12 -32 -2 -12 17 -10 24 2 4 6 1 18
-7 27 -11 14 -11 16 1 8 9 -5 12 -4 7 3 -3 6 -2 13 4 17 16 10 1 25 -18 18
-15 -6 -16 -5 -2 12 14 17 13 18 -2 12 -9 -3 -19 -1 -21 6 -2 7 -8 9 -12 4 -5
-4 1 -18 13 -30 24 -26 20 -37 -12 -36 -12 0 -15 3 -8 6 6 2 12 10 12 16 0 8
-4 7 -12 -1 -7 -7 -23 -12 -37 -13 l-26 -1 24 -7 c21 -6 22 -8 7 -20 -9 -7
-16 -24 -16 -38 0 -14 -4 -21 -10 -18 -5 3 -10 -1 -10 -10 0 -9 5 -13 10 -10
6 3 10 0 10 -8 0 -15 -41 -18 -51 -3 -4 4 -6 -4 -6 -18 0 -14 4 -26 9 -26 5 0
7 4 3 9 -3 5 0 13 6 17 7 4 9 3 5 -4 -3 -6 -2 -13 3 -16 5 -4 12 -2 16 4 8 13
25 13 25 0 0 -5 -7 -10 -16 -10 -8 0 -12 -5 -9 -10 4 -6 11 -8 16 -5 5 4 9 1
9 -4 0 -6 6 -11 14 -11 8 0 17 -12 21 -27 9 -38 43 -83 63 -83 13 0 14 -2 4
-9 -10 -6 -8 -10 10 -14 34 -10 57 -7 33 3 -17 7 -16 9 10 9 26 1 28 -1 14
-14 -18 -18 -63 -29 -53 -14 4 7 -5 9 -22 7 -20 -2 -29 2 -30 12 -2 34 -5 40
-36 71 -24 24 -28 31 -13 26 15 -6 12 -1 -9 17 -16 14 -33 23 -37 20 -5 -3 -9
3 -9 12 0 14 -3 15 -12 6 -14 -14 -39 3 -32 22 3 8 -4 16 -16 19 -12 3 -19 10
-16 15 9 15 -4 42 -21 42 -8 0 -11 5 -8 10 4 6 12 7 18 3 7 -4 6 1 -2 11 -8 9
-15 35 -16 56 -1 31 2 38 16 35 15 -3 14 3 -8 40 -15 23 -32 41 -39 38 -6 -2
-15 1 -20 8 -4 7 -2 15 4 17 7 2 12 13 12 24 0 17 3 18 14 9 12 -10 13 -8 9 8
-3 12 -1 21 6 21 10 0 15 -14 12 -33 -1 -5 3 -6 8 -3 5 3 20 -3 34 -14 30 -24
45 -26 27 -5 -15 18 -3 19 35 5 23 -9 27 -15 23 -44 -3 -26 1 -37 17 -47 18
-11 19 -11 6 5 -12 14 -12 19 -1 29 9 9 11 9 6 0 -3 -6 -2 -14 3 -17 5 -4 8 2
6 11 -1 10 -8 17 -14 16 -6 -2 -11 6 -11 16 0 11 -10 27 -22 36 -13 8 -22 17
-21 20 1 3 -9 28 -22 57 -14 29 -25 59 -25 66 0 6 -3 12 -8 12 -4 0 -6 42 -5
93 2 79 8 119 39 232 13 50 17 74 19 130 l2 60 87 35 c144 59 171 110 123 229
-25 63 -25 63 -4 56 12 -4 75 -9 140 -10z m527 -26 c0 -5 -4 -9 -8 -9 -5 0 -9
7 -9 15 0 8 4 12 9 9 4 -3 8 -9 8 -15z m247 15 c-3 -3 -12 -4 -19 -1 -8 3 -5
6 6 6 11 1 17 -2 13 -5z m-38 -8 c-12 -11 -88 -43 -83 -35 3 5 20 16 37 23 31
14 55 20 46 12z m2276 -62 c-12 -30 -13 -39 -3 -46 7 -4 9 -8 3 -8 -6 0 -10
-28 -10 -62 -1 -37 -5 -63 -12 -65 -7 -3 -10 -10 -7 -18 7 -17 -12 -29 -22
-14 -4 8 -3 9 4 5 7 -4 12 -2 12 3 0 6 -4 11 -10 11 -5 0 -10 5 -10 11 0 5 4
8 9 4 15 -8 25 15 12 28 -6 6 -11 16 -11 22 0 5 4 4 9 -3 6 -10 10 -9 14 7 3
12 2 19 -2 16 -17 -10 -9 63 11 107 26 55 36 57 13 2z m-2480 7 c-3 -6 -11
-11 -17 -11 -6 0 -6 6 2 15 14 17 26 13 15 -4z m170 4 c-50 -18 -57 -18 -25 0
14 8 34 14 45 14 11 0 2 -6 -20 -14z m96 -97 c-30 -79 -45 -107 -58 -113 -11
-4 -13 -1 -9 11 5 14 4 15 -9 4 -11 -9 -19 -10 -26 -3 -16 16 19 39 40 26 14
-9 18 -8 18 3 0 7 -4 11 -8 9 -9 -6 -34 24 -25 32 3 3 6 1 6 -5 0 -7 5 -12 10
-12 18 0 10 29 -12 45 l-23 16 25 -5 c14 -2 32 -7 41 -11 10 -4 19 0 22 9 4 9
9 16 11 16 3 0 2 -10 -3 -22z m2275 -28 c4 0 3 7 0 16 -3 8 -2 12 4 9 6 -3 10
-13 10 -21 0 -8 7 -17 15 -21 22 -8 56 -78 48 -99 -4 -11 -2 -15 4 -11 11 7
38 -71 29 -81 -3 -3 -6 1 -6 8 0 7 -13 35 -30 62 -32 51 -36 63 -20 53 6 -3
10 -2 10 4 0 5 -4 13 -10 16 -5 3 -10 1 -10 -6 0 -8 -4 -8 -15 1 -8 7 -15 17
-15 22 0 6 7 4 17 -3 14 -12 16 -12 11 1 -3 8 -14 15 -26 15 -24 0 -75 52 -66
67 3 5 15 0 25 -11 11 -12 22 -21 25 -21z m-2401 20 c-11 -5 -27 -9 -35 -9 -9
0 -8 4 5 9 11 5 27 9 35 9 9 0 8 -4 -5 -9z m148 -15 c-3 -9 -8 -14 -10 -11 -3
3 -2 9 2 15 9 16 15 13 8 -4z m-119 -4 c4 -5 -3 -7 -14 -4 -23 6 -26 13 -6 13
8 0 17 -4 20 -9z m2432 -148 c47 -83 53 -141 24 -229 -12 -38 -31 -79 -43 -91
-11 -13 -15 -23 -9 -23 7 0 12 5 12 12 0 6 3 8 6 5 9 -9 -16 -38 -27 -31 -5 3
-6 -1 -3 -9 3 -9 -10 -26 -33 -44 -51 -40 -68 -50 -58 -34 6 10 3 11 -14 2
-11 -7 -21 -14 -21 -17 0 -3 6 -2 13 2 8 5 9 4 2 -3 -23 -24 -104 -41 -164
-36 -34 3 -64 10 -67 14 -10 16 16 49 33 42 13 -5 15 -2 10 11 -4 10 -3 15 4
11 16 -11 153 63 199 108 47 44 89 126 95 184 l5 38 -14 -41 c-38 -111 -99
-176 -206 -217 -79 -31 -100 -30 -100 4 0 22 0 22 23 3 l22 -19 -22 26 c-39
43 -31 73 30 112 61 39 99 81 131 146 23 46 56 161 56 196 0 30 75 -49 116
-122z m-3678 -34 c51 -32 58 -142 22 -349 -26 -145 -23 -268 8 -367 18 -58 67
-153 78 -153 3 0 2 5 -2 12 -4 7 -3 8 5 4 6 -4 9 -12 5 -17 -3 -5 11 -32 32
-59 41 -54 47 -59 37 -34 -5 14 -3 14 15 3 17 -11 19 -16 9 -28 -10 -12 -9
-13 8 -3 18 9 21 7 23 -14 1 -15 -2 -23 -8 -19 -6 4 -7 11 -4 17 4 7 2 8 -5 4
-17 -11 6 -37 26 -29 11 4 14 2 11 -8 -3 -8 4 -18 15 -24 11 -5 18 -13 16 -16
-6 -10 22 -39 32 -33 5 3 8 0 7 -6 -2 -7 7 -16 20 -21 13 -5 22 -5 22 1 0 5 7
7 15 4 14 -6 13 -8 -2 -20 -17 -13 -17 -14 0 -8 12 4 17 2 15 -7 -2 -8 4 -13
14 -13 10 1 15 -2 13 -7 -3 -4 4 -13 16 -19 15 -8 19 -8 15 -1 -5 7 -1 9 8 5
9 -3 14 -10 11 -14 -3 -4 2 -10 10 -14 8 -3 14 -2 14 2 -3 20 3 32 16 32 8 0
15 -4 15 -10 0 -5 -3 -9 -8 -7 -7 2 -12 -6 -12 -21 0 -5 10 -8 23 -8 12 1 21
-4 20 -11 -3 -14 146 -50 156 -37 3 5 22 9 43 9 43 0 59 -17 111 -121 64 -128
148 -419 164 -569 5 -45 2 -55 -22 -83 -44 -52 -59 -56 -96 -25 -18 15 9 -24
60 -87 51 -63 97 -125 102 -138 20 -53 2 -348 -25 -401 -10 -19 -28 -31 -58
-40 -63 -19 -110 -45 -173 -96 l-55 -45 0 317 c0 542 -20 924 -56 1083 -16 68
-50 150 -64 150 -4 0 -1 -28 8 -62 21 -82 7 -197 -41 -339 -39 -116 -124 -316
-138 -325 -21 -13 -414 388 -537 548 -91 119 -202 335 -202 395 0 9 25 90 54
178 89 262 155 545 127 545 -17 0 -68 77 -91 138 -24 63 -30 185 -11 221 30
54 132 76 189 40z m3739 -61 c-3 -8 -6 -5 -6 6 -1 11 2 17 5 13 3 -3 4 -12 1
-19z m-4566 -297 c-22 -69 -90 -202 -106 -208 -6 -1 -16 1 -23 6 -19 11 -1 76
20 75 11 -1 15 6 13 23 -1 13 5 31 14 40 9 9 15 18 14 20 -2 2 -3 11 -3 21 0
13 2 14 9 4 6 -9 8 -5 9 15 0 56 15 153 23 153 4 0 11 9 14 20 4 11 11 18 16
15 5 -4 10 0 11 7 1 7 4 -18 5 -56 3 -50 -2 -88 -16 -135z m4552 164 c-3 -9
-8 -14 -10 -11 -3 3 -2 9 2 15 9 16 15 13 8 -4z m-502 -68 c-6 -8 -9 -16 -6
-18 2 -3 -7 -18 -21 -34 l-25 -30 17 35 c18 37 33 60 41 60 3 0 0 -6 -6 -13z
m-3121 -80 c0 -2 -17 -19 -37 -38 l-38 -34 34 38 c33 34 41 42 41 34z m943
-58 l57 -12 0 -77 c0 -42 -7 -99 -15 -126 -18 -61 -128 -244 -119 -198 4 21 1
34 -10 43 -9 8 -16 18 -16 24 0 6 7 2 15 -9 15 -20 19 -16 9 10 -3 9 -13 16
-21 16 -10 0 -5 11 16 35 36 41 35 33 16 110 -20 85 -18 195 4 195 4 0 33 -5
64 -11z m-893 -119 c-3 -3 -6 -17 -7 -32 -1 -22 3 -26 22 -22 13 2 27 -1 31
-7 4 -8 3 -9 -5 -5 -6 4 -19 2 -27 -5 -13 -10 -17 -10 -25 2 -5 8 -7 20 -4 27
3 7 1 21 -5 31 -5 10 -6 28 -3 40 l6 22 11 -23 c7 -13 10 -25 6 -28z m3217 44
c-3 -3 -12 -4 -19 -1 -8 3 -5 6 6 6 11 1 17 -2 13 -5z m-3200 -76 c-3 -8 -6
-5 -6 6 -1 11 2 17 5 13 3 -3 4 -12 1 -19z m-1145 -52 c-7 -28 -22 -47 -33
-40 -5 3 -8 0 -7 -8 2 -7 -3 -12 -10 -10 -8 1 -11 -2 -8 -7 8 -12 -21 -34 -34
-26 -5 3 -10 17 -10 29 0 26 22 50 35 38 5 -4 5 1 2 10 -4 12 2 19 21 26 41
13 50 11 44 -12z m-1000 -78 c-7 -7 -12 -8 -12 -2 0 14 12 26 19 19 2 -3 -1
-11 -7 -17z m2055 0 c-3 -8 -6 -5 -6 6 -1 11 2 17 5 13 3 -3 4 -12 1 -19z
m843 -43 c0 -2 -10 -9 -22 -15 -22 -11 -22 -10 -4 4 21 17 26 19 26 11z m-97
-30 c4 -8 3 -16 -1 -19 -4 -3 -9 4 -9 15 -2 23 3 25 10 4z m-1055 -182 c-22
-65 -44 -122 -49 -128 -15 -16 -10 -116 11 -205 27 -111 71 -245 190 -580 135
-380 208 -609 296 -930 129 -469 221 -864 284 -1215 21 -121 43 -240 49 -265
5 -24 8 -46 6 -48 -2 -2 -17 16 -33 40 -17 25 -59 128 -97 239 -232 671 -493
1149 -861 1577 l-37 43 24 27 c13 15 63 68 112 118 l88 91 -129 106 c-91 75
-134 117 -142 139 -18 48 -26 618 -11 731 14 106 43 202 74 248 41 62 161 126
238 128 l27 1 -40 -117z m1896 -583 c11 -11 -11 -40 -31 -40 -8 0 -11 -4 -8
-10 4 -6 -46 -10 -144 -10 -82 0 -152 3 -154 8 -3 4 25 6 61 5 37 -1 56 1 42
3 -66 12 -73 15 -61 27 6 6 11 16 11 22 0 5 -4 4 -9 -4 -5 -7 -14 -10 -20 -7
-6 4 -9 10 -7 14 6 10 309 2 320 -8z m-344 4 c0 -8 -19 -13 -24 -6 -3 5 1 9 9
9 8 0 15 -2 15 -3z"/>
<path d="M1465 5726 c-56 -18 -89 -41 -117 -84 -44 -67 -44 -70 20 -74 50 -3
60 0 82 22 14 13 29 24 33 22 5 -1 6 2 3 7 -3 5 2 17 12 28 9 10 13 12 7 3 -7
-12 -7 -13 5 -2 8 7 15 20 15 30 0 9 5 16 11 15 14 -2 14 30 0 39 -14 10 -23
9 -71 -6z"/>
<path d="M1575 5690 c3 -5 8 -10 11 -10 2 0 4 5 4 10 0 6 -5 10 -11 10 -5 0
-7 -4 -4 -10z"/>
<path d="M1592 5680 c-7 -12 -18 -18 -24 -14 -7 4 -8 3 -4 -5 10 -15 -13 -43
-27 -34 -6 3 -7 1 -3 -6 4 -7 -5 -26 -23 -47 -17 -19 -31 -40 -31 -46 0 -13
40 -83 82 -146 26 -38 31 -41 51 -31 27 15 71 51 77 64 3 6 7 9 10 8 11 -3 19
146 10 182 -3 11 -12 26 -20 33 -8 8 -9 11 -2 7 25 -13 11 3 -26 29 -46 31
-53 32 -70 6z"/>
<path d="M1320 5495 c0 -29 39 -93 76 -123 33 -27 112 -57 122 -47 3 2 -5 20
-17 40 -12 20 -19 40 -16 45 3 5 0 12 -6 16 -8 5 -9 3 -4 -6 6 -9 4 -11 -4 -6
-7 5 -10 14 -7 22 3 8 0 13 -7 11 -7 -1 -11 6 -11 15 1 10 -2 16 -6 13 -5 -3
-11 4 -15 15 -5 16 -15 20 -56 20 -37 0 -49 -4 -49 -15z"/>
<path d="M5208 5663 c6 -2 18 -2 25 0 6 3 1 5 -13 5 -14 0 -19 -2 -12 -5z"/>
<path d="M5199 5248 c-6 -12 -4 -48 2 -48 5 0 9 11 9 25 0 21 -6 33 -11 23z"/>
<path d="M5573 5215 c-6 -14 -8 -25 -4 -25 4 0 13 11 19 25 6 14 8 25 4 25 -4
0 -12 -11 -19 -25z"/>
<path d="M5590 5075 c-11 -13 -10 -14 4 -9 9 3 16 10 16 15 0 13 -6 11 -20 -6z"/>
<path d="M2620 4701 c-56 -12 -98 -39 -130 -83 -48 -66 -44 -72 53 -62 120 13
233 9 306 -10 62 -17 65 -17 90 2 25 18 41 61 24 63 -4 1 -20 3 -36 5 -15 1
-52 17 -83 34 -53 31 -143 61 -174 59 -8 -1 -31 -4 -50 -8z"/>
<path d="M2525 4422 c73 -34 235 -61 235 -39 0 27 -19 34 -105 41 -49 4 -108
9 -130 12 l-40 4 40 -18z"/>
<path d="M2747 4152 c-47 -49 -26 -112 39 -112 l29 0 -35 18 c-43 21 -50 53
-21 93 27 37 22 37 -12 1z"/>
<path d="M2259 4091 c-21 -22 -32 -42 -22 -40 4 1 14 1 22 0 11 -1 11 -4 0
-18 -12 -14 -12 -16 1 -11 8 2 15 11 16 19 0 8 4 22 9 32 11 26 -7 38 -26 18z
m21 -10 c0 -5 -7 -12 -16 -15 -14 -5 -15 -4 -4 9 14 17 20 19 20 6z"/>
<path d="M2177 4074 c7 -3 10 -11 7 -18 -3 -7 2 -13 10 -13 11 0 13 5 5 19 -5
10 -15 18 -22 17 -9 0 -9 -2 0 -5z"/>
<path d="M2530 4042 c-16 -16 -33 -46 -38 -68 -17 -68 -22 -105 -13 -100 5 3
12 -1 15 -10 9 -25 21 -9 20 28 -1 19 5 38 15 44 12 10 13 15 3 27 -10 11 -9
17 3 27 8 7 12 16 10 21 -3 4 9 15 27 24 23 11 28 12 16 2 -10 -8 -15 -17 -11
-20 3 -4 12 -2 19 4 9 7 18 7 31 0 10 -6 14 -11 9 -11 -5 0 -3 -7 4 -15 8 -9
9 -15 2 -15 -6 0 -18 10 -26 22 -9 12 -17 18 -17 13 -1 -6 -2 -14 -4 -20 -1
-5 -3 -16 -3 -23 -1 -7 -7 -10 -12 -7 -8 5 -7 11 1 21 10 12 8 14 -12 10 -13
-3 -26 -5 -28 -5 -3 -1 3 -7 14 -14 12 -10 14 -16 7 -21 -7 -4 -12 -12 -12
-17 0 -6 5 -7 10 -4 6 3 10 0 10 -7 0 -7 9 2 20 19 18 30 22 32 46 23 15 -6
29 -8 32 -5 3 3 0 5 -7 5 -7 0 -9 5 -6 10 10 16 -5 50 -21 50 -8 0 -14 4 -14
8 0 8 -43 32 -56 32 -3 0 -18 -13 -34 -28z"/>
<path d="M2682 4026 c10 -7 16 -15 14 -17 -3 -2 8 -4 24 -4 35 0 31 5 -18 21
-30 11 -34 11 -20 0z"/>
<path d="M2555 4010 c3 -5 8 -10 11 -10 2 0 4 5 4 10 0 6 -5 10 -11 10 -5 0
-7 -4 -4 -10z"/>
<path d="M2286 3985 c-3 -8 -1 -15 3 -15 5 0 11 7 15 15 3 8 1 15 -3 15 -5 0
-11 -7 -15 -15z"/>
<path d="M2180 3976 c0 -2 8 -10 18 -17 15 -13 16 -12 3 4 -13 16 -21 21 -21
13z"/>
<path d="M2738 3943 c6 -2 18 -2 25 0 6 3 1 5 -13 5 -14 0 -19 -2 -12 -5z"/>
<path d="M2788 3933 c6 -2 18 -2 25 0 6 3 1 5 -13 5 -14 0 -19 -2 -12 -5z"/>
<path d="M2281 3904 c0 -11 3 -14 6 -6 3 7 2 16 -1 19 -3 4 -6 -2 -5 -13z"/>
<path d="M2526 3912 c-2 -4 -1 -14 4 -22 7 -11 9 -9 7 8 -1 24 -3 26 -11 14z"/>
<path d="M2210 3890 c0 -11 4 -20 9 -20 17 0 19 15 5 28 -12 11 -14 9 -14 -8z"/>
<path d="M2363 3872 c0 -12 5 -22 9 -22 11 0 10 12 -2 30 -7 12 -9 10 -7 -8z"/>
<path d="M2410 3876 c0 -2 6 -9 14 -15 11 -9 16 -9 22 0 4 8 3 9 -4 5 -7 -4
-12 -2 -12 3 0 6 -4 11 -10 11 -5 0 -10 -2 -10 -4z"/>
<path d="M2320 3859 c0 -5 5 -7 10 -4 6 3 10 8 10 11 0 2 -4 4 -10 4 -5 0 -10
-5 -10 -11z"/>
<path d="M2542 3850 c0 -14 2 -19 5 -12 2 6 2 18 0 25 -3 6 -5 1 -5 -13z"/>
<path d="M2522 3830 c0 -14 2 -19 5 -12 2 6 2 18 0 25 -3 6 -5 1 -5 -13z"/>
<path d="M2334 3829 c1 -7 15 -13 30 -15 26 -3 27 -2 10 11 -12 9 -21 10 -25
3 -4 -7 -8 -6 -12 1 -4 8 -5 8 -3 0z"/>
<path d="M2521 3782 c-8 -15 -6 -18 14 -18 13 0 21 4 19 8 -3 5 -10 5 -16 2
-7 -5 -9 -1 -5 9 9 23 0 22 -12 -1z"/>
<path d="M2717 3778 c7 -8 10 -18 6 -21 -3 -4 0 -13 6 -21 20 -24 2 -39 -40
-33 -22 3 -42 1 -45 -4 -3 -6 -12 -5 -21 3 -9 7 -18 12 -20 11 -11 -8 -14 -1
-4 10 8 11 6 18 -12 33 l-22 19 18 -21 c12 -14 14 -23 7 -26 -14 -4 -1 -39 14
-36 6 2 12 -2 13 -7 0 -6 -2 -9 -7 -8 -4 1 -6 -11 -4 -27 4 -34 -6 -44 -23
-24 -8 8 -9 15 -3 19 11 7 -9 45 -24 45 -5 0 -2 -8 7 -18 12 -13 14 -21 6 -29
-7 -7 -6 -15 5 -25 8 -9 12 -19 8 -23 -4 -4 0 -5 8 -3 9 2 14 -3 12 -11 -3
-12 -1 -12 13 -1 16 13 16 15 -1 20 -17 6 -17 7 1 18 11 6 20 18 20 28 0 9 6
19 14 22 10 3 11 0 5 -9 -6 -12 -5 -12 8 -1 9 7 20 12 24 11 20 -3 35 1 30 9
-3 5 1 9 8 9 8 0 12 -7 9 -16 -3 -10 -2 -12 4 -6 15 19 53 16 53 -5 0 -10 8
-26 18 -37 9 -10 14 -14 10 -8 -3 5 -1 26 6 46 7 20 12 43 10 52 -2 13 2 14
24 6 15 -6 33 -16 42 -22 13 -11 13 -10 0 7 -17 22 -20 58 -5 68 6 4 -17 8
-50 8 -33 0 -78 3 -100 7 -35 5 -38 4 -28 -9z m30 -12 c-3 -7 0 -19 6 -25 8
-8 8 -11 0 -11 -6 0 -13 6 -16 13 -4 13 2 37 10 37 3 0 3 -6 0 -14z m123 -26
c0 -5 -5 -10 -11 -10 -5 0 -7 5 -4 10 3 6 8 10 11 10 2 0 4 -4 4 -10z m-186
-49 c19 -7 19 -8 -1 -13 -14 -4 -24 0 -27 8 -6 15 -1 16 28 5z"/>
<path d="M2550 3714 c0 -8 5 -12 10 -9 6 3 10 10 10 16 0 5 -4 9 -10 9 -5 0
-10 -7 -10 -16z"/>
<path d="M2875 3689 c6 -9 4 -11 -8 -6 -19 7 -44 -18 -27 -28 6 -4 9 -1 8 6
-4 18 33 18 55 0 9 -8 17 -9 17 -4 0 6 -12 18 -26 28 -15 10 -23 12 -19 4z"/>
<path d="M5408 4288 c5 -5 16 -8 23 -6 8 3 3 7 -10 11 -17 4 -21 3 -13 -5z"/>
<path d="M1974 4639 c-4 -7 -1 -10 7 -7 8 3 22 1 32 -4 21 -11 24 -68 4 -68
-20 0 -47 -33 -47 -59 0 -23 41 -71 61 -71 6 0 0 9 -15 21 -33 26 -36 74 -5
84 26 9 39 43 27 75 -14 37 -49 53 -64 29z"/>
<path d="M3666 3196 c10 -8 21 -11 24 -6 3 4 14 10 25 13 11 2 0 5 -24 6 -41
1 -43 0 -25 -13z"/>
<path d="M3036 5578 c3 -4 10 -5 16 -2 6 4 15 0 20 -7 8 -12 9 -11 5 1 -2 8
-13 16 -25 16 -12 1 -19 -3 -16 -8z"/>
<path d="M3104 5541 c20 -22 26 -25 26 -13 0 4 -10 13 -22 21 -23 14 -23 14
-4 -8z"/>
<path d="M2665 5510 c3 -5 8 -10 11 -10 2 0 4 5 4 10 0 6 -5 10 -11 10 -5 0
-7 -4 -4 -10z"/>
<path d="M2580 5470 c-9 -6 -10 -10 -3 -10 6 0 15 5 18 10 8 12 4 12 -15 0z"/>
<path d="M3254 5428 c3 -22 17 -39 27 -33 5 4 5 14 -1 26 -12 21 -29 26 -26 7z"/>
<path d="M3140 5386 c0 -2 8 -10 18 -17 15 -13 16 -12 3 4 -13 16 -21 21 -21
13z"/>
<path d="M3473 5373 c4 -9 -29 -44 -35 -38 -2 2 -4 -4 -4 -15 0 -14 3 -16 13
-8 7 6 13 17 13 24 0 21 16 17 29 -8 l11 -23 -6 24 c-5 18 -3 22 7 16 8 -5 5
1 -5 13 -19 22 -31 29 -23 15z"/>
<path d="M3097 5349 c7 -7 15 -10 18 -7 3 3 -2 9 -12 12 -14 6 -15 5 -6 -5z"/>
<path d="M3066 5342 c-3 -5 1 -9 9 -9 8 0 12 4 9 9 -3 4 -7 8 -9 8 -2 0 -6 -4
-9 -8z"/>
<path d="M3043 5325 c4 -4 -1 -18 -10 -29 l-18 -21 24 20 c13 11 25 18 26 15
2 -3 7 0 12 5 4 6 4 7 -1 3 -5 -4 -16 -2 -25 4 -9 7 -13 8 -8 3z"/>
<path d="M3461 5281 c-19 -14 -21 -20 -10 -26 8 -5 11 -5 7 0 -4 4 3 16 15 26
29 24 19 24 -12 0z"/>
<path d="M4041 5274 c0 -11 3 -14 6 -6 3 7 2 16 -1 19 -3 4 -6 -2 -5 -13z"/>
<path d="M3386 5268 c5 -8 1 -9 -12 -4 -15 6 -17 5 -6 -5 10 -11 15 -10 29 4
16 16 16 17 0 17 -11 0 -15 -4 -11 -12z"/>
<path d="M2850 5262 c0 -5 -15 -13 -32 -17 -18 -4 -28 -9 -22 -11 18 -8 80 21
66 30 -7 4 -12 3 -12 -2z"/>
<path d="M3471 5246 c-7 -8 -8 -17 -3 -20 6 -3 12 3 15 14 6 24 4 25 -12 6z"/>
<path d="M3517 5249 c7 -7 15 -10 18 -7 3 3 -2 9 -12 12 -14 6 -15 5 -6 -5z"/>
<path d="M4072 5234 c10 -10 20 -16 22 -13 3 3 -5 11 -17 18 -21 13 -21 12 -5
-5z"/>
<path d="M3368 5233 c6 -2 10 -9 7 -14 -4 -5 1 -6 10 -2 13 5 14 7 3 14 -7 5
-17 8 -23 8 -5 0 -4 -3 3 -6z"/>
<path d="M2758 5223 c7 -3 16 -2 19 1 4 3 -2 6 -13 5 -11 0 -14 -3 -6 -6z"/>
<path d="M3333 5165 c0 -8 4 -12 9 -9 5 3 6 10 3 15 -9 13 -12 11 -12 -6z"/>
<path d="M2770 5164 c0 -2 10 -8 21 -15 17 -8 20 -8 17 2 -4 11 -38 23 -38 13z"/>
<path d="M2797 5112 c17 -17 29 -33 26 -35 -2 -3 5 -10 16 -17 14 -7 21 -7 21
0 0 5 -4 10 -10 10 -5 0 -9 4 -7 9 1 5 -7 17 -18 26 -11 9 -14 14 -7 10 6 -3
12 -1 12 4 0 6 -6 11 -14 11 -8 0 -23 3 -33 7 -11 4 -6 -5 14 -25z"/>
<path d="M2885 5050 c-11 -5 -17 -9 -13 -9 3 -1 13 -3 21 -6 8 -4 14 0 14 10
0 8 -1 15 -1 14 -1 0 -10 -4 -21 -9z"/>
<path d="M3676 4948 c35 -57 126 -120 219 -153 113 -40 269 -33 393 16 54 22
36 27 -24 7 -80 -27 -217 -26 -309 3 -71 21 -188 78 -243 118 -34 24 -47 27
-36 9z"/>
<path d="M5020 4897 c0 -51 -27 -129 -59 -174 -20 -28 -51 -51 -95 -73 -57
-28 -73 -32 -128 -28 -73 5 -140 34 -204 91 -24 21 -44 34 -44 28 0 -6 4 -11
9 -11 5 0 8 -11 6 -25 -1 -14 1 -25 6 -25 5 0 13 -10 20 -21 9 -17 8 -20 -2
-13 -7 4 -3 -7 10 -24 12 -18 27 -30 32 -27 5 4 9 1 9 -6 0 -7 3 -9 7 -6 3 4
-4 18 -17 32 -28 29 -25 31 21 8 136 -68 309 -34 381 75 37 55 57 103 50 120
-4 11 -1 13 8 7 9 -6 11 -4 5 6 -5 7 -8 32 -6 56 1 24 0 43 -3 43 -3 0 -6 -15
-6 -33z"/>
<path d="M3662 4880 c8 -26 100 -89 173 -119 74 -30 195 -50 195 -31 0 5 -13
10 -28 10 -48 0 -183 39 -231 66 -25 15 -61 41 -80 58 -18 17 -32 24 -29 16z"/>
<path d="M4956 4875 c-9 -26 -7 -32 5 -12 6 10 9 21 6 23 -2 3 -7 -2 -11 -11z"/>
<path d="M4991 4874 c0 -11 3 -14 6 -6 3 7 2 16 -1 19 -3 4 -6 -2 -5 -13z"/>
<path d="M4864 4764 c-18 -14 -18 -15 4 -4 12 6 22 13 22 15 0 8 -5 6 -26 -11z"/>
<path d="M4905 4724 l-30 -26 33 22 c17 12 32 23 32 26 0 7 -4 5 -35 -22z"/>
<path d="M4560 4721 c14 -11 30 -21 35 -21 11 0 -7 14 -40 31 -13 7 -12 3 5
-10z"/>
<path d="M4698 4693 c7 -3 16 -2 19 1 4 3 -2 6 -13 5 -11 0 -14 -3 -6 -6z"/>
<path d="M4798 4693 c7 -3 16 -2 19 1 4 3 -2 6 -13 5 -11 0 -14 -3 -6 -6z"/>
<path d="M3900 4590 c-18 -12 -2 -12 25 0 13 6 15 9 5 9 -8 0 -22 -4 -30 -9z"/>
<path d="M5139 4568 c-5 -18 -6 -38 -1 -34 7 8 12 36 6 36 -2 0 -4 -1 -5 -2z"/>
<path d="M4624 4546 c3 -22 22 -40 30 -28 3 5 -3 17 -13 27 -17 15 -19 15 -17
1z"/>
<path d="M4788 4473 c7 -3 16 -2 19 1 4 3 -2 6 -13 5 -11 0 -14 -3 -6 -6z"/>
<path d="M5190 4435 c0 -5 5 -17 10 -25 5 -8 10 -10 10 -5 0 6 -5 17 -10 25
-5 8 -10 11 -10 5z"/>
<path d="M4351 4410 c-52 -11 -156 -58 -191 -87 -21 -18 -22 -23 -11 -37 20
-24 58 -20 116 13 103 58 210 73 315 44 22 -6 23 -5 12 9 -37 46 -158 75 -241
58z"/>
<path d="M5036 4284 c-5 -13 -3 -14 6 -7 7 6 20 13 28 16 10 4 8 6 -6 6 -12 1
-25 -6 -28 -15z"/>
<path d="M5021 4244 c0 -11 3 -14 6 -6 3 7 2 16 -1 19 -3 4 -6 -2 -5 -13z"/>
<path d="M4531 4119 c-61 -33 -88 -35 -153 -15 -63 18 -80 5 -32 -25 51 -31
138 -38 185 -14 43 22 79 55 79 72 0 18 -17 14 -79 -18z"/>
<path d="M5069 4103 c-13 -16 -12 -17 4 -4 16 13 21 21 13 21 -2 0 -10 -8 -17
-17z"/>
<path d="M368 3933 c7 -3 16 -2 19 1 4 3 -2 6 -13 5 -11 0 -14 -3 -6 -6z"/>
<path d="M4405 3699 c-57 -17 -280 -41 -323 -35 l-43 6 32 -61 c56 -105 120
-130 214 -84 53 26 110 86 145 153 15 29 12 31 -25 21z"/>
<path d="M5486 2927 c7 -72 45 -231 78 -327 l25 -71 -27 -10 c-56 -21 -168
-49 -199 -49 l-32 0 39 -82 c21 -46 54 -130 74 -188 l35 -104 -26 -46 c-59
-102 -174 -241 -312 -380 l-146 -147 -100 -6 c-55 -3 -129 -13 -165 -23 -65
-16 -209 -79 -244 -106 -17 -13 -17 -16 -3 -44 9 -16 27 -42 40 -58 l24 -30
31 22 c40 29 170 84 185 79 7 -2 -30 -47 -81 -99 -53 -54 -89 -99 -83 -102 6
-4 62 44 126 106 68 67 127 116 143 119 49 12 176 9 243 -5 36 -8 95 -28 132
-44 36 -17 68 -28 71 -26 3 2 4 1 1 -2 -2 -4 13 -19 34 -35 22 -15 42 -32 45
-37 7 -11 -68 -235 -108 -327 -15 -32 -25 -59 -23 -61 8 -8 112 174 144 252
19 49 37 90 38 92 1 1 26 -32 55 -74 56 -81 109 -194 110 -231 0 -13 3 -23 6
-23 3 0 30 21 60 46 62 54 62 47 4 171 -44 93 -96 167 -168 237 -46 45 -49 50
-41 79 5 18 11 101 14 187 l4 155 -18 -115 c-21 -133 -41 -230 -47 -230 -2 0
-25 13 -52 30 -66 41 -162 75 -252 90 -41 7 -77 15 -79 16 -2 2 62 67 141 146
135 135 281 313 315 383 14 30 13 37 -35 171 -28 76 -55 151 -61 166 l-10 27
120 38 c91 29 118 42 115 53 -3 8 -30 89 -60 180 -31 91 -63 194 -71 230 l-14
65 5 -58z m110 -1816 c-3 -5 -16 -11 -28 -14 -22 -6 -22 -5 -4 8 22 17 40 20
32 6z"/>
<path d="M3433 2665 c-3 -9 -2 -19 2 -23 3 -4 56 -7 116 -7 87 0 112 3 119 15
13 20 -20 27 -138 29 -75 1 -94 -2 -99 -14z"/>
<path d="M3470 2390 c-29 -19 11 -30 100 -28 68 2 85 6 85 18 0 12 -17 16 -85
18 -47 1 -92 -2 -100 -8z"/>
<path d="M3386 2054 c-8 -22 -8 -26 3 -20 5 4 7 -3 4 -14 -7 -25 -38 -44 -64
-37 -10 3 -18 2 -17 -2 2 -21 -4 -30 -18 -24 -13 5 -13 7 -2 14 7 5 9 9 3 9
-5 0 -16 -4 -23 -8 -9 -6 -6 -12 12 -20 34 -15 179 -11 199 7 26 21 21 66 -9
90 -28 22 -54 27 -54 11 0 -5 -5 -10 -11 -10 -5 0 -7 5 -4 10 3 6 2 10 -3 10
-6 0 -13 -7 -16 -16z m-21 -94 c3 -5 -3 -10 -14 -10 -12 0 -21 5 -21 10 0 6 6
10 14 10 8 0 18 -4 21 -10z"/>
<path d="M3343 2021 l-22 -18 30 -1 c16 0 29 4 29 9 0 5 -5 9 -11 9 -5 0 -7 5
-4 10 9 14 3 12 -22 -9z"/>
<path d="M3194 1131 c6 -10 104 -49 140 -57 50 -10 126 -35 131 -44 10 -16
154 -12 170 4 8 8 49 21 92 30 73 16 170 52 162 61 -2 2 -29 -5 -59 -15 -47
-16 -85 -19 -254 -20 -202 0 -308 11 -360 37 -15 8 -25 10 -22 4z"/>
<path d="M1140 856 c0 -2 8 -10 18 -17 15 -13 16 -12 3 4 -13 16 -21 21 -21
13z"/>
<path d="M1215 790 c10 -11 20 -20 23 -20 3 0 -3 9 -13 20 -10 11 -20 20 -23
20 -3 0 3 -9 13 -20z"/>
<path d="M1304 721 c7 -11 46 -35 46 -28 0 3 -12 12 -26 22 -15 9 -23 12 -20
6z"/>
<path d="M1361 677 c2 -1 15 -11 29 -22 l25 -20 -19 23 c-11 12 -24 22 -29 22
-6 0 -8 -1 -6 -3z"/>
<path d="M1450 616 c0 -2 14 -14 30 -26 17 -12 30 -19 30 -16 0 2 -13 14 -30
26 -16 12 -30 19 -30 16z"/>
<path d="M3345 494 c-17 -8 -21 -12 -11 -9 11 3 23 0 28 -7 5 -9 11 -9 16 -3
4 6 19 10 34 10 15 -1 30 5 32 11 7 18 -61 16 -99 -2z"/>
<path d="M3290 460 c0 -5 5 -10 11 -10 5 0 7 5 4 10 -3 6 -8 10 -11 10 -2 0
-4 -4 -4 -10z"/>
<path d="M3244 438 c-4 -6 -3 -8 4 -4 5 3 12 1 14 -6 3 -8 6 -9 11 -1 4 6 0
13 -8 17 -8 3 -17 0 -21 -6z"/>
<path d="M3587 429 c7 -7 15 -10 18 -7 3 3 -2 9 -12 12 -14 6 -15 5 -6 -5z"/>
<path d="M3198 414 c-19 -10 -25 -19 -21 -30 5 -14 8 -13 18 5 6 12 14 19 17
16 3 -3 8 1 11 10 7 18 9 18 -25 -1z"/>
<path d="M3625 399 c-4 -6 -5 -12 -2 -15 2 -3 7 2 10 11 7 17 1 20 -8 4z"/>
<path d="M3058 329 c-46 -30 -54 -49 -22 -49 8 0 12 5 9 10 -3 6 -3 15 1 21 4
8 9 7 15 -2 7 -11 9 -10 9 3 0 12 5 16 18 12 14 -5 15 -4 2 5 -13 9 -13 11 0
12 8 1 19 1 23 0 5 -1 6 3 2 9 -8 13 -2 15 -57 -21z"/>
<path d="M3720 335 c-7 -9 -8 -15 -2 -15 5 0 12 7 16 15 3 8 4 15 2 15 -2 0
-9 -7 -16 -15z"/>
<path d="M2981 276 c-6 -7 -7 -17 -3 -21 4 -5 -1 -5 -11 -2 -12 5 -16 3 -11
-5 5 -7 2 -9 -8 -5 -20 7 -38 -11 -30 -32 5 -14 4 -15 -14 -1 -18 14 -18 14
-5 -2 15 -20 35 -14 27 8 -3 7 -1 16 4 19 6 4 10 -2 10 -12 0 -15 2 -16 10 -3
6 9 10 10 10 3 0 -17 89 -143 101 -143 15 0 11 14 -20 62 -18 28 -28 57 -27
72 2 17 -2 26 -11 26 -8 0 -12 -4 -8 -9 3 -5 1 -12 -5 -16 -12 -8 -13 15 -1
34 5 7 13 11 19 7 6 -3 13 -3 16 2 2 4 -4 13 -14 20 -14 8 -21 8 -29 -2z"/>
<path d="M3190 228 c0 -5 -5 -6 -10 -3 -6 4 -9 1 -8 -7 2 -7 -2 -12 -8 -11
-13 2 -16 -12 -15 -79 1 -112 3 -118 27 -118 13 0 35 11 50 25 15 14 29 23 32
20 3 -3 16 13 29 35 17 29 23 52 22 85 -2 24 -5 42 -7 40 -3 -3 -11 0 -19 6
-16 14 -93 20 -93 7z"/>
<path d="M3526 223 c2 -7 -1 -15 -6 -18 -6 -4 -10 -27 -10 -52 0 -43 4 -50 52
-95 55 -51 105 -66 93 -28 -3 10 -1 29 5 40 11 20 16 80 8 110 -8 38 -81 70
-116 51 -11 -6 -22 -8 -25 -3 -2 4 -2 2 -1 -5z"/>
<path d="M3817 190 c-8 -11 -17 -17 -22 -12 -5 4 -5 2 -2 -4 3 -6 -5 -28 -19
-48 -27 -40 -26 -58 2 -35 19 15 74 98 74 111 0 15 -19 8 -33 -12z"/>
<path d="M3030 181 c0 -10 28 -41 37 -41 3 0 -1 8 -10 18 -10 10 -14 22 -10
25 3 4 1 7 -5 7 -7 0 -12 -4 -12 -9z"/>
<path d="M2880 170 c0 -5 5 -10 11 -10 5 0 7 5 4 10 -3 6 -8 10 -11 10 -2 0
-4 -4 -4 -10z"/>
<path d="M2815 161 c-3 -5 2 -17 11 -25 23 -23 30 -20 9 4 -22 25 -9 26 19 3
21 -18 21 -18 2 5 -21 24 -32 27 -41 13z"/>
<path d="M2776 131 c-7 -11 18 -33 27 -24 4 3 7 12 7 20 0 15 -26 18 -34 4z"/>
<path d="M4083 97 c0 -8 6 -14 14 -14 9 0 10 4 2 14 -6 7 -12 13 -14 13 -1 0
-2 -6 -2 -13z"/>
<path d="M2736 87 c3 -10 9 -15 12 -12 3 3 0 11 -7 18 -10 9 -11 8 -5 -6z"/>
<path d="M2873 82 c10 -10 14 -22 10 -27 -5 -4 -3 -5 4 -1 7 4 23 0 35 -7 31
-20 78 -30 78 -17 0 5 -5 10 -11 10 -5 0 -7 5 -3 12 4 7 3 8 -4 4 -6 -4 -33 5
-59 19 -57 30 -72 32 -50 7z"/>
<path d="M3883 69 c-29 -17 -53 -33 -53 -35 0 -8 55 8 80 24 14 9 28 16 31 15
3 -1 6 5 6 13 0 19 -4 18 -64 -17z"/>
</g>
</svg>
